<svg width="16" height="16" fill="none" xmlns="http://www.w3.org/2000/svg"><path d="M8.466 1.007c.304.02.603.06.895.117l.357-.686c.17-.3.58-.19.577.155l-.038.77c.289.098.568.215.838.349l.522-.573c.241-.245.61-.032.517.3l-.236.736c.252.17.491.353.717.552l.655-.417c.296-.175.598.125.422.422l-.42.651c.2.228.384.468.552.718l.739-.234c.331-.092.544.276.299.517l-.574.52c.134.27.25.55.348.837l.774-.034c.344-.004.454.408.154.576l-.688.354c.058.293.096.593.117.899l.757.166c.333.086.333.512 0 .598l-.757.163c-.02.306-.06.606-.117.898l.688.358c.299.168.188.58-.155.576l-.773-.038a6.772 6.772 0 0 1-.346.838l.57.523c.247.24.034.61-.297.517l-.738-.237c-.168.252-.353.49-.551.717l.418.656c.174.295-.127.596-.422.422l-.652-.42a6.984 6.984 0 0 1-.719.55l.235.741c.092.331-.277.544-.517.298l-.52-.574c-.27.134-.549.25-.838.348l.035.774c.004.344-.408.454-.576.155l-.354-.689a6.9 6.9 0 0 1-.898.117l-.168.757c-.085.333-.511.333-.597 0l-.163-.756a7.194 7.194 0 0 1-.902-.118l-.353.688c-.168.3-.58.19-.576-.154l.034-.774a7.044 7.044 0 0 1-.837-.346l-.52.572c-.24.246-.61.033-.517-.3l.234-.738a6.986 6.986 0 0 1-.719-.552l-.65.42c-.297.175-.598-.126-.422-.422l.417-.653a6.971 6.971 0 0 1-.552-.719l-.737.236c-.33.094-.544-.276-.297-.517l.57-.522a6.978 6.978 0 0 1-.348-.838l-.77.038c-.345.004-.456-.408-.155-.577l.686-.357a6.872 6.872 0 0 1-.117-.898L.25 8.3c-.333-.086-.333-.512 0-.598l.757-.166a6.92 6.92 0 0 1 .117-.9l-.688-.353c-.299-.168-.188-.58.156-.576l.772.034c.097-.288.214-.568.348-.837l-.573-.52c-.246-.24-.033-.61.298-.517l.74.234c.167-.252.352-.492.55-.719l-.419-.65c-.174-.295.127-.597.422-.422l.655.417c.227-.2.467-.384.718-.552l-.237-.737c-.092-.33.277-.544.517-.297l.522.57c.27-.134.55-.25.84-.347l-.04-.771c-.003-.344.409-.454.577-.155l.357.686a6.92 6.92 0 0 1 .9-.117L7.7.25c.086-.333.512-.333.597 0l.168.757Zm3.998 2.53A6.293 6.293 0 0 0 8 1.686a6.293 6.293 0 0 0-4.464 1.85A6.298 6.298 0 0 0 1.687 8a6.29 6.29 0 0 0 1.85 4.464A6.288 6.288 0 0 0 8 14.313a6.288 6.288 0 0 0 4.464-1.85A6.293 6.293 0 0 0 14.313 8c0-1.742-.707-3.32-1.85-4.464Z" fill="#B06B2B"/><path d="M8 2.554c1.504 0 2.866.61 3.85 1.595A5.434 5.434 0 0 1 13.447 8a5.43 5.43 0 0 1-1.595 3.85A5.429 5.429 0 0 1 8 13.447a5.43 5.43 0 0 1-3.851-1.595A5.43 5.43 0 0 1 2.554 8c0-1.503.61-2.864 1.595-3.85a5.43 5.43 0 0 1 3.85-1.596Zm-3.017 4.93-1.466.007a4.768 4.768 0 0 0 .01 1.096h1.965l.373.935H3.752c.142.393.336.761.573 1.096h1.921l.373.934H5.22c.766.6 1.731.96 2.78.96a4.489 4.489 0 0 0 2.78-.96h-1.4l.373-.934h1.92a4.47 4.47 0 0 0 .573-1.096h-2.112l.373-.935h1.966a4.753 4.753 0 0 0 .008-1.096l-1.466-.008.373-.936.885.006a4.503 4.503 0 0 0-1.084-1.742l-.042-.041L8 12.373 4.852 4.77l-.041.04a4.52 4.52 0 0 0-1.085 1.743l.886-.006.371.936Zm.63-3.312L8 9.936l2.386-5.764A4.488 4.488 0 0 0 8 3.49c-.876 0-1.694.25-2.386.682Z" fill="#FEF6BD"/><path fill-rule="evenodd" clip-rule="evenodd" d="M8 4.373A1.093 1.093 0 1 1 8 6.56a1.093 1.093 0 0 1 0-2.187Zm0 2.823A.453.453 0 1 1 8 8.1a.453.453 0 0 1 0-.905Z" fill="#B06B2B"/></svg>