<svg fill="none" height="36" viewBox="0 0 130 36" width="130" xmlns="http://www.w3.org/2000/svg"><path d="m11.1927 10.1261c.5499 1.0118.6709 2.0869.3602 3.2306l-3.14268 8.6773c-.82209-2.0016-1.88614-5.3614-2.74123-7.5527-.43442-1.1356-.72037-2.0979-.72037-2.733-.011-.5746.16772-1.1135.54715-1.6222h-5.29826c1.61945 1.2263 2.10061 3.1757 2.76048 4.9683 1.17953 3.1784 2.36181 6.4337 3.54409 9.5681 0 0 .37118 1.2455 2.22983 1.2922 0 0 4.05829-11.5202 4.47339-12.6749.4207-1.1576 1.0668-2.2326 2.0924-3.1537zm7.781 2.4993s0-1.2675.8331-2.5598h-4.4459c.8221.9486.8551 2.3426.8551 2.5598v10.5744c0 .2007-.0412 1.6057-.8551 2.5405h4.4459c-.8331-1.2895-.8331-2.5625-.8331-2.5625zm11.4159-2.5598c.5472.9404.7864 1.6855.7864 3.1537v7.66l-7.5309-10.8137h-3.0849c.5471.9404.7864 1.6855.7864 3.1537v9.3701c0 1.4655-.2393 2.2078-.7864 3.1509h3.4781c-.5471-.9431-.8084-1.6854-.8084-3.1509v-7.5307l6.717 9.3454c.7342 1.13 1.7817 1.6771 3.1345 1.6441v-12.9609c0-1.3115.2392-2.0813.7863-3.0217zm13.4945 14.2312c-4.0308 0-5.4522-2.6944-6.2606-5.7161-.3904-1.4654-.6159-2.8484-.6159-3.9647-.0275-1.7239.4537-2.5872 1.4463-2.579 3.1729 0 4.5998.9871 5.4494 2.5625l2.4086-2.9557c-1.2235-1.317-2.9557-1.88334-4.8391-1.88334-3.7833 0-6.827 2.16934-6.827 8.16584 0 5.9994 3.0437 8.1219 6.827 8.1219 1.9274 0 3.6788-.5719 4.9271-1.9053-.8304.0439-1.6855.1539-2.5158.1539zm6.431-11.6714s0-1.2675.8331-2.5598h-4.4431c.8193.9486.8551 2.3426.8551 2.5598v10.5744c0 .2007-.0413 1.6057-.8551 2.5405h4.4431c-.8331-1.2895-.8331-2.5625-.8331-2.5625z" fill="#fef6bd"/><path d="m93.9522 16.5434c-2.0181-1.4792-4.0967-3.3709-4.0967-4.1352 0-.5444.4399-.6791 1.0943-.6791 2.2986 0 4.028 1.5754 5.5402 2.7797l1.2675-3.4341c-.6764-.6159-2.0319-1.31424-4.4844-1.31424-3.6788 0-5.4935 2.07854-5.4935 4.06924 0 1.9493 1.5975 3.1976 3.8273 4.9737 2.3288 1.8476 4.5972 3.742 4.5972 4.7456 0 .4619-.3712.7231-1.2895.7231-2.5626 0-4.1518-1.4875-5.1141-3.0437l-2.5845 2.7385c1.3362 1.4874 3.0327 2.0813 5.6859 2.0813 3.4781 0 5.8179-2.2573 5.8179-4.2506 0-2.1226-2.5377-3.6101-4.7676-5.2542zm12.4138-6.4778h-7.1128c.8138.9376.8528 2.3426.8548 2.5378v10.5964c0 .2007-.041 1.6057-.8548 2.5405h4.6848c-.833-1.097-.833-2.5625-.833-2.5625v-3.0629h2.915s4.528-.022 4.528-5.4082c0-4.6411-4.182-4.6411-4.182-4.6411zm-3.261 9.1117v-7.5857h1.578s3.019.0055 3.019 3.1151c0 3.9262-2.532 4.4102-4.597 4.4706zm11.595-6.5519s0-1.2675.833-2.5598h-4.443c.819.9486.855 2.3426.855 2.5598v10.5744c0 .2007-.044 1.6057-.855 2.5405h4.443c-.833-1.2895-.833-2.5625-.833-2.5625zm11.416-2.5598c.547.9404.786 1.6855.786 3.1537v7.66l-7.531-10.8137h-3.085c.547.9404.787 1.6855.787 3.1537v9.3701c0 1.4655-.24 2.2078-.787 3.1509h3.481c-.547-.9431-.811-1.6854-.811-3.1509v-7.5307l6.717 9.3454c.734 1.13 1.782 1.6771 3.134 1.6441v-12.9609c0-1.3115.24-2.0813.787-3.0217z" fill="#fef6bd"/><g fill="#8d4d10"><path clip-rule="evenodd" d="m52.5038 6.97815h-26.8515l13.9454-1.96036 2.1913-1.83664h13.3763c-1.1466 1.26475-2.1529 2.53225-2.6615 3.797z" fill-rule="evenodd"/><path clip-rule="evenodd" d="m52.5038 28.8637h-26.8515l13.9454 1.9604 2.1913 1.8366h13.3763c-1.1466-1.2647-2.1529-2.5322-2.6615-3.797z" fill-rule="evenodd"/><path clip-rule="evenodd" d="m86.1327 6.97815h26.8513l-13.9452-1.96036-2.1914-1.83664h-13.3735c1.1466 1.26475 2.1529 2.53225 2.6588 3.797z" fill-rule="evenodd"/><path clip-rule="evenodd" d="m86.1327 28.8637h26.8513l-13.9452 1.9604-2.1914 1.8366h-13.3735c1.1466-1.2647 2.1529-2.5322 2.6588-3.797z" fill-rule="evenodd"/><path d="m69.9603 2.9364c.6543.04399 1.295.12647 1.9191.2502l.7644-1.47096c.3629-.64337 1.2455-.40692 1.2372.32994l-.0825 1.65517c.6187.20896 1.2181.45916 1.7954.74235l1.1191-1.22351c.5169-.52514 1.306-.06873 1.1108.64063l-.5087 1.57818c.5389.36293 1.0531.7561 1.5397 1.18227l1.3995-.89357c.6352-.37668 1.2813.26944.9074.90457l-.9019 1.39672c.4262.48665.8221.99805 1.1823 1.53695l1.5865-.50041c.7066-.19796 1.1657.59114.6378 1.10807l-1.229 1.1135c.286.5774.5362 1.1768.7451 1.7926l1.658-.0714c.7368-.0083.9733.8715.3327 1.2345l-1.4765.7588c.1237.6269.2089 1.2703.2502 1.9246l1.6222.3575c.7149.1842.7149 1.097 0 1.2812l-1.6222.3492c-.0413.6544-.1265 1.295-.2502 1.9246l1.4737.7644c.6406.3629.4069 1.2455-.3327 1.2372l-1.6524-.0825c-.2117.6187-.4592 1.2153-.7451 1.7954l1.2262 1.1218c.5252.5141.0688 1.3032-.6406 1.1053l-1.5809-.5059c-.3602.5361-.7561 1.0503-1.1823 1.5369l.8963 1.405c.3739.6324-.2694 1.2785-.9046.9046l-1.3967-.9019c-.4867.4262-1.0008.8194-1.537 1.1823l.5004 1.5864c.198.7094-.5939 1.1658-1.108.6379l-1.1136-1.229c-.5773.286-1.1767.5334-1.7954.7451l.0743 1.6579c.0082.7369-.8744.9733-1.2345.3327l-.7589-1.4764c-.6269.1237-1.2703.2089-1.9246.2502l-.3575 1.6221c-.1842.7149-1.097.7149-1.2812 0l-.3492-1.6194c-.6544-.044-1.3005-.1292-1.9302-.2529l-.7588 1.4737c-.3602.6433-1.2428.4069-1.2345-.33l.0714-1.6579c-.6158-.2089-1.2152-.4591-1.7926-.7451l-1.1136 1.229c-.5141.5279-1.306.0688-1.108-.6406l.5004-1.5837c-.5389-.3602-1.053-.7561-1.5397-1.1823l-1.394.8991c-.6324.3767-1.2785-.2694-.9018-.9046l.8908-1.4022c-.4262-.4839-.8221-.998-1.1823-1.5369l-1.5782.5059c-.7093.1979-1.1658-.5912-.6379-1.1081l1.2208-1.119c-.2859-.5774-.5334-1.1767-.7451-1.7954l-1.6497.0825c-.7368.0083-.9733-.8743-.3327-1.2372l1.471-.7644c-.1237-.6296-.209-1.273-.2502-1.9246l-1.6222-.3492c-.7149-.1842-.7149-1.097 0-1.2812l1.6222-.3575c.0412-.6543.1265-1.2977.2502-1.9273l-1.471-.7561c-.6434-.3602-.4069-1.2428.33-1.2345l1.6552.0714c.2089-.6158.4591-1.2152.7451-1.7954l-1.2263-1.1107c-.5279-.51418-.0715-1.30603.6406-1.10807l1.581.50041c.3629-.5389.7561-1.05304 1.185-1.5397l-.8991-1.39397c-.3767-.63513.2695-1.2785.9046-.90457l1.3995.89357c.4867-.42617 1.0008-.82209 1.5397-1.18227l-.5059-1.57818c-.2007-.70936.5911-1.16577 1.1053-.63788l1.119 1.22076c.5802-.28594 1.1796-.53339 1.7982-.7451l-.0825-1.64968c-.0082-.73685.8743-.97605 1.2345-.33268l.7671 1.47096c.6269-.12373 1.2703-.20896 1.9247-.2502l.3492-1.62218c.1842-.714858 1.097-.714858 1.2812 0zm8.5674 5.41918c-2.4471-2.44702-5.829-3.96197-9.5655-3.96197-3.7338 0-7.1184 1.51495-9.5655 3.96197-2.447 2.44702-3.962 5.82882-3.962 9.56532s1.515 7.1184 3.962 9.5654c2.4471 2.447 5.8317 3.962 9.5655 3.962 3.7365 0 7.1184-1.515 9.5655-3.962 2.447-2.447 3.962-5.8289 3.962-9.5654s-1.515-7.1183-3.962-9.56532z"/></g><path d="m68.9622 6.06043c3.2758 0 6.2409 1.32856 8.3865 3.47409 2.1455 2.14558 3.4741 5.11068 3.4741 8.38638s-1.3286 6.2408-3.4741 8.3864c-2.1456 2.1455-5.1107 3.474-8.3865 3.474-3.2731 0-6.2409-1.3285-8.3864-3.474-2.1456-2.1456-3.4742-5.1107-3.4742-8.3864s1.3286-6.2408 3.4742-8.38638c2.1455-2.14553 5.1133-3.47409 8.3864-3.47409zm-6.5672 10.73547-3.1922.0157c-.0418.3628-.0626.7334-.0626 1.1093 0 .4333.0287.8587.0809 1.279h4.2806l.8118 2.0359h-4.5991c.3054.8561.7282 1.6574 1.2477 2.383h4.1814l.8118 2.0385h-3.0461c1.6679 1.3077 3.7691 2.0855 6.053 2.0855s4.3851-.7778 6.053-2.0855h-3.0461l.8118-2.0385h4.1815c.5194-.7256.9422-1.5269 1.2476-2.383h-4.5991l.8118-2.0359h4.2807c.0548-.4203.0809-.8457.0809-1.279 0-.3759-.0209-.7465-.0601-1.1093l-3.1922-.0157.8091-2.0385 1.9263.0131c-.4881-1.4461-1.305-2.7407-2.3595-3.7952l-.0914-.0887-6.8543 16.5587-6.8543-16.5587-.0913.0887c-1.0545 1.0545-1.8715 2.3491-2.3596 3.7952l1.9263-.0131zm1.3704-7.21179 5.1968 12.55219 5.1969-12.55219c-1.5087-.94226-3.2889-1.48516-5.1969-1.48516s-3.6882.5429-5.1968 1.48516z" fill="#fef6bd"/><path clip-rule="evenodd" d="m68.9622 10.0225c1.3155 0 2.3804 1.065 2.3804 2.3805 0 1.3129-1.0649 2.3804-2.3804 2.3804-1.3156 0-2.3805-1.0675-2.3805-2.3804 0-1.3155 1.0649-2.3805 2.3805-2.3805z" fill="#8d4d10" fill-rule="evenodd"/><path clip-rule="evenodd" d="m68.9622 16.1695c.5455 0 .9866.4411.9866.9866s-.4411.9866-.9866.9866-.9866-.4411-.9866-.9866.4411-.9866.9866-.9866z" fill="#8d4d10" fill-rule="evenodd"/></svg>