<svg fill="none" height="41" viewBox="0 0 78 41" width="78" xmlns="http://www.w3.org/2000/svg"><path d="m48.1533 8.33227c.3962.72751.4807 1.50373.2566 2.32543l-2.2605 6.2455c-.5911-1.442-1.3576-3.8584-1.9714-5.4368-.3151-.8152-.5197-1.51023-.5197-1.96492-.0097-.41572.1202-.80221.393-1.16921h-3.8129c1.166.8834 1.5135 2.28643 1.9877 3.57583.8509 2.2864 1.6986 4.6314 2.5495 6.8853 0 0 .2663.8964 1.6044.9289 0 0 2.9198-8.2884 3.2218-9.1198.302-.83145.7665-1.60768 1.5037-2.27023zm5.5992 1.79933s0-.91268.5976-1.84155h-3.1959c.5911.68204.6139 1.68561.6139 1.84155v7.6095c0 .1429-.0293 1.1563-.6139 1.8285h3.1959c-.5976-.9288-.5976-1.8447-.5976-1.8447zm8.2136-1.84155c.393.67554.5684 1.21143.5684 2.26695v5.5148l-5.4206-7.78175h-2.2215c.393.67554.5684 1.21143.5684 2.26695v6.7457c0 1.0555-.1754 1.5882-.5684 2.2669h2.5041c-.393-.6787-.5814-1.2114-.5814-2.2669v-5.4206l4.8328 6.7262c.5294.8119 1.2828 1.2082 2.2572 1.1822v-9.3277c0-.94508.1721-1.49721.5651-2.17275zm9.7142 10.24035c-2.9035 0-3.9233-1.939-4.5079-4.1118-.2826-1.0555-.4417-2.0526-.4417-2.8548-.0195-1.2406.3248-1.86096 1.0425-1.85446 2.28 0 3.3063.70806 3.9201 1.84146l1.7311-2.12727c-.8802-.94511-2.1273-1.35433-3.4817-1.35433-2.7216 0-4.9139 1.56219-4.9139 5.8753 0 4.3195 2.1923 5.846 4.9139 5.846 1.3869 0 2.6502-.4092 3.5466-1.3706-.5976.0325-1.2146.1105-1.809.1105zm4.6281-8.3988s0-.91268.5976-1.84155h-3.1991c.5911.68204.6171 1.68561.6171 1.84155v7.6095c0 .1429-.0292 1.1563-.6171 1.8285h3.1991c-.5976-.9288-.5976-1.8447-.5976-1.8447z" fill="#fef6bd"/><path d="m49.4707 25.8801c-1.4517-1.0652-2.9457-2.4261-2.9457-2.9749 0-.393.315-.4904.7859-.4904 1.6532 0 2.9003 1.1334 3.9851 2.0006l.9126-2.4716c-.4839-.4417-1.4615-.9451-3.2283-.9451-2.647 0-3.9526 1.494-3.9526 2.9295 0 1.4031 1.1497 2.2995 2.7574 3.5791 1.6759 1.3283 3.3063 2.6924 3.3063 3.4134 0 .3346-.2664.5229-.9289.5229-1.8415 0-2.9847-1.0717-3.6798-2.1922l-1.8577 1.9714c.9581 1.0717 2.1825 1.4972 4.089 1.4972 2.504 0 4.1896-1.6239 4.1896-3.0594 0-1.5265-1.8285-2.5983-3.4329-3.7805zm8.9347-4.6638h-5.1185c.5846.6756.6138 1.6889.6138 1.8285v7.6258c0 .143-.0292 1.1563-.6138 1.8286h3.3712c-.6009-.7893-.6009-1.8448-.6009-1.8448v-2.2052h2.0981s3.2608-.0163 3.2608-3.8909c0-3.342-3.0107-3.342-3.0107-3.342zm-2.3482 6.5606v-5.4596h1.1368s2.1727.0033 2.1727 2.241c0 2.8256-1.822 3.1731-3.3095 3.2186zm8.3469-4.7158s0-.9127.5976-1.8448h-3.1991c.5911.6853.6171 1.6889.6171 1.8448v7.6095c0 .143-.0293 1.1563-.6171 1.8286h3.1991c-.5976-.9289-.5976-1.8448-.5976-1.8448zm8.2136-1.8448c.393.6788.5652 1.2147.5652 2.2702v5.5148l-5.4174-7.785h-2.2215c.393.6788.5684 1.2147.5684 2.2702v6.7457c0 1.0555-.1754 1.5882-.5684 2.267h2.5041c-.393-.6788-.5814-1.2115-.5814-2.267v-5.4206l4.8328 6.7262c.5294.812 1.2828 1.2049 2.2572 1.1822v-9.3277c0-.9451.1721-1.4972.5651-2.176z" fill="#fef6bd"/><path d="m21.7747 2.6877c.7697.05197 1.5264.1494 2.2669.29555l.9029-1.73757c.4287-.756732 1.468-.477425 1.4615.39298l-.0974 1.95193c.7307.24683 1.4388.54238 2.1208.88015l1.3218-1.44851c.6106-.62033 1.5427-.0812 1.3089.75673l-.5976 1.86424c.6366.42871 1.2439.89314 1.8155 1.39655l1.6564-1.05553c.7502-.4417 1.5135.31828 1.0685 1.06852l-1.062 1.64988c.5034.57486.9711 1.18219 1.3965 1.81548l1.8708-.59106c.8379-.23384 1.377.69826.7567 1.30886l-1.4518 1.3154c.3378.682.6301 1.39.8802 2.1175l1.9584-.0844c.8704-.0098 1.1497 1.0328.3898 1.4582l-1.7409.8964c.1462.7405.2436 1.5005.2956 2.2735l1.9162.4222c.8444.2176.8444 1.2959 0 1.5135l-1.9162.4124c-.0487.773-.1494 1.533-.2956 2.2735l1.7409.9061c.7567.4255.4774 1.468-.393 1.4583l-1.9552-.0974c-.2468.7307-.5391 1.4387-.8769 2.1208l1.4453 1.3251c.6235.6073.0844 1.5427-.7535 1.3088l-1.8675-.6008c-.4255.6366-.8932 1.2406-1.3966 1.8155l1.0588 1.6596c.4417.747-.3215 1.5102-1.0685 1.0685l-1.6499-1.0652c-.5748.5034-1.1822.9711-1.8187 1.3965l.5943 1.874c.2338.8379-.7015 1.3771-1.3089.7535l-1.3153-1.4518c-.6821.3378-1.3901.6301-2.1208.8802l.0877 1.9584c.0097.8704-1.0328 1.1497-1.4583.393l-.8964-1.7441c-.7437.1462-1.5005.2468-2.2734.2956l-.4255 1.9162c-.2144.8444-1.2926.8444-1.5102 0l-.4125-1.913c-.7762-.0519-1.5362-.1526-2.2832-.2988l-.8931 1.7408c-.4255.76-1.468.4807-1.4583-.3897l.0844-1.9584c-.7275-.2469-1.4355-.5424-2.1175-.8769l-1.3154 1.4485c-.6073.6236-1.54269.0844-1.3088-.7568l.5911-1.8707c-.6366-.4254-1.24395-.8931-1.81881-1.3965l-1.64663 1.062c-.75024.445-1.51347-.3183-1.06853-1.0685l1.05554-1.6532c-.50341-.5748-.97109-1.1821-1.39655-1.8187l-1.86424.5976c-.83793.2371-1.37706-.6983-.75349-1.3089l1.44202-1.3218c-.33777-.6821-.63007-1.3901-.88015-2.1208l-1.94868.0974c-.873652.0097-1.152962-1.0328-.39298-1.4615l1.73757-.9029c-.14615-.7405-.24683-1.5005-.29555-2.2735l-1.916197-.4124c-.844427-.2176-.844427-1.2959 0-1.5135l1.916197-.4222c.04872-.773.1494-1.533.29555-2.2767l-1.74082-.8932c-.756733-.4254-.477423-1.468.39299-1.4582l1.95517.0844c.24683-.7275.54238-1.4355.88015-2.1175l-1.44852-1.3154c-.62357-.6073-.08444-1.5427.75349-1.30886l1.87073.59106c.42546-.63653.89315-1.24387 1.39655-1.81873l-1.06202-1.64663c-.4417-.74699.32153-1.51022 1.06852-1.06852l1.65638 1.05553c.57486-.50341 1.18221-.97109 1.81881-1.39655l-.6009-1.86424c-.23383-.83793.7015-1.37706 1.3089-.75349l1.3218 1.44203c.6853-.33777 1.3933-.63008 2.1241-.87691l-.0975-1.95193c-.0097-.870405 1.0328-1.149712 1.4583-.39298l.9029 1.73757c.7437-.14615 1.5037-.24683 2.2767-.29555l.4125-1.916196c.2176-.844427 1.2958-.844427 1.5102 0zm10.1201 6.40141c-2.8906-2.89054-6.8853-4.68008-11.2991-4.68008-4.4137 0-8.4085 1.78954-11.29907 4.68008-2.89054 2.89379-4.68008 6.88859-4.68008 11.29909 0 4.4137 1.78954 8.4085 4.68008 11.2991 2.89057 2.8937 6.88537 4.68 11.29907 4.68 4.4138 0 8.4085-1.7863 11.2991-4.68 2.8905-2.8906 4.6801-6.8854 4.6801-11.2991 0-4.4105-1.7896-8.4053-4.6801-11.29909z" fill="#8d4d10"/><path d="m20.5958 6.60279c3.8073 0 7.2537 1.54419 9.7474 4.03791 2.4938 2.4968 4.038 5.9432 4.038 9.7475 0 3.8074-1.5442 7.2537-4.038 9.7475-2.4937 2.4937-5.9401 4.0379-9.7474 4.0379-3.8074 0-7.2538-1.5442-9.7475-4.0379-2.49377-2.4938-4.03796-5.9401-4.03796-9.7475 0-3.8043 1.54419-7.2507 4.03796-9.7475 2.4937-2.49372 5.9401-4.03791 9.7475-4.03791zm-7.636 12.47791-3.71031.0182c-.04551.4247-.06978.8524-.06978 1.2893 0 .5036.03034 1.0011.09405 1.4865h4.97534l.9435 2.3664h-5.3485c.358.9951.8495 1.9264 1.4501 2.7728h4.8632l.9435 2.3664h-3.5404c1.9385 1.5199 4.3807 2.427 7.0353 2.427 2.6545 0 5.0967-.9071 7.0353-2.427h-3.5404l.9434-2.3664h4.8601c.6038-.8464 1.0952-1.7777 1.4502-2.7728h-5.3455l.9435-2.3664h4.9754c.0606-.4854.094-.9829.094-1.4865 0-.4369-.0243-.8646-.0728-1.2893l-3.7103-.0182.9435-2.3694 2.2389.0152c-.5673-1.6807-1.5169-3.1855-2.7425-4.4111l-.1062-.1032-7.9666 19.2462-7.9667-19.2462-.1062.1032c-1.2256 1.2256-2.1752 2.7304-2.74554 4.4111l2.24194-.0152zm1.5957-8.3823 6.0403 14.5893 6.0402-14.5893c-1.7535-1.09522-3.8226-1.72624-6.0402-1.72624-2.2177 0-4.2867.63102-6.0403 1.72624z" fill="#fef6bd"/><g clip-rule="evenodd" fill="#8d4d10" fill-rule="evenodd"><path d="m20.5957 11.208c1.526 0 2.7668 1.2378 2.7668 2.7668 0 1.526-1.2408 2.7668-2.7668 2.7668-1.529 0-2.7668-1.2408-2.7668-2.7668 0-1.529 1.2378-2.7668 2.7668-2.7668z"/><path d="m20.5957 18.3525c.6341 0 1.1468.5127 1.1468 1.1468s-.5127 1.1468-1.1468 1.1468c-.634 0-1.1467-.5127-1.1467-1.1468s.5127-1.1468 1.1467-1.1468z"/></g></svg>