<svg width="24" height="16" viewBox="0 0 24 16" fill="none" xmlns="http://www.w3.org/2000/svg">
<g clip-path="url(#clip0_9527_641)">
<path d="M0 2C0 0.895431 0.895431 0 2 0H22C23.1046 0 24 0.895431 24 2V14C24 15.1046 23.1046 16 22 16H2C0.89543 16 0 15.1046 0 14V2Z" fill="white"/>
<mask id="mask0_9527_641" style="mask-type:luminance" maskUnits="userSpaceOnUse" x="3" y="3" width="18" height="10">
<path d="M19.5049 12.9845H4.49508C3.66937 12.9845 3 12.2788 3 11.4082V4.57625C3 3.70568 3.66937 3 4.49508 3H19.5049C20.3306 3 21 3.70568 21 4.57625V11.4082C21 12.2788 20.3306 12.9845 19.5049 12.9845Z" fill="white"/>
</mask>
<g mask="url(#mask0_9527_641)">
<path d="M19.9218 12.9845H4.07814C3.20656 12.9845 2.5 12.2788 2.5 11.4082V4.57625C2.5 3.70568 3.20656 3 4.07814 3H19.9218C20.7934 3 21.5 3.70568 21.5 4.57625V11.4082C21.5 12.2788 20.7934 12.9845 19.9218 12.9845Z" fill="url(#paint0_linear_9527_641)"/>
</g>
<path d="M11.6119 11.7028H10.3235V4.49353H11.6119V11.7028Z" fill="white"/>
<path d="M14.0025 11.7028H12.7141V6.92764H14.0025V11.7028Z" fill="white"/>
<path d="M19.7769 11.7028L17.8409 9.17573L19.6217 6.92765H18.1005L16.393 9.10862V4.49353H15.1046V11.7028H16.393V9.25118L18.1005 11.7028H19.7769Z" fill="white"/>
<path d="M7.04043 10.4702C6.40177 10.4702 5.88398 9.9531 5.88398 9.3152C5.88398 8.67734 6.40177 8.16017 7.04043 8.16017C7.67912 8.16017 8.19687 8.67734 8.19687 9.3152C8.19687 9.9531 7.67912 10.4702 7.04043 10.4702ZM7.04043 6.87336C6.62204 6.87336 6.22835 6.97851 5.88398 7.16352V4.4935H4.59558V9.3152C4.59558 10.6638 5.69019 11.7571 7.04043 11.7571C8.39069 11.7571 9.48529 10.6638 9.48529 9.3152C9.48529 7.96664 8.39069 6.87336 7.04043 6.87336Z" fill="white"/>
<mask id="mask1_9527_641" style="mask-type:luminance" maskUnits="userSpaceOnUse" x="7" y="4" width="3" height="3">
<path d="M9.44651 5.28422C9.44651 5.91789 8.93221 6.4315 8.29785 6.4315C7.66344 6.4315 7.14914 5.91789 7.14914 5.28422C7.14914 4.65061 7.66344 4.13693 8.29785 4.13693C8.93221 4.13693 9.44651 4.65061 9.44651 5.28422Z" fill="white"/>
</mask>
<g mask="url(#mask1_9527_641)">
<path d="M9.44651 5.28422C9.44651 5.91789 8.93221 6.4315 8.29785 6.4315C7.66344 6.4315 7.14914 5.91789 7.14914 5.28422C7.14914 4.65061 7.66344 4.13693 8.29785 4.13693C8.93221 4.13693 9.44651 4.65061 9.44651 5.28422Z" fill="url(#paint1_radial_9527_641)"/>
</g>
</g>
<defs>
<linearGradient id="paint0_linear_9527_641" x1="12" y1="12.9845" x2="12" y2="3" gradientUnits="userSpaceOnUse">
<stop stop-color="#3D3E3F"/>
<stop offset="1" stop-color="#050606"/>
</linearGradient>
<radialGradient id="paint1_radial_9527_641" cx="0" cy="0" r="1" gradientUnits="userSpaceOnUse" gradientTransform="translate(7.36387 4.07492) rotate(39.9654) scale(3.76412 3.76332)">
<stop stop-color="#EE252C"/>
<stop offset="0.494975" stop-color="#EF304C"/>
<stop offset="1" stop-color="#9C41A6"/>
</radialGradient>
<clipPath id="clip0_9527_641">
<rect width="24" height="16" fill="white"/>
</clipPath>
</defs>
</svg>
