<svg width="24" height="16" viewBox="0 0 24 16" fill="none" xmlns="http://www.w3.org/2000/svg"><path fill-rule="evenodd" clip-rule="evenodd" d="M16.5843 4.5C16.109 4.5 15.7229 4.87676 15.7229 5.34122C15.7229 5.80596 16.109 6.1819 16.5843 6.1819C17.0605 6.1819 17.4463 5.80596 17.4463 5.34122C17.4463 4.87676 17.0605 4.5 16.5843 4.5ZM4.15787 7.31847C3.93699 7.30454 3.42524 7.27203 3.42524 6.82259C3.42524 6.28026 4.16151 6.28026 4.43783 6.28026C4.92382 6.28026 5.5526 6.42015 6.0022 6.55156C6.0022 6.55156 6.25248 6.6379 6.46552 6.72587L6.4854 6.73134V5.24588L6.45881 5.23795C5.92801 5.05681 5.31184 4.88278 4.16879 4.88278C2.1982 4.88278 1.5 6.00268 1.5 6.96302C1.5 7.516 1.743 8.81869 3.99914 8.96868L4.00123 8.9688C4.19457 8.98037 4.69874 9.01052 4.69874 9.4733C4.69874 9.85689 4.28301 10.0826 3.58397 10.0826C2.81802 10.0826 2.07446 9.89241 1.62318 9.71127V11.2407C2.29899 11.4142 3.06102 11.5 3.95407 11.5C5.88014 11.5 6.74352 10.4402 6.74352 9.38943C6.74352 8.19849 5.77796 7.42448 4.15787 7.31847ZM9.97371 6.65827L9.98259 6.63571H12.0458C11.9871 6.81904 11.6189 7.92528 10.7796 8.96403C10.7796 8.96403 11.7144 10.5626 11.928 11.4298H9.76759C9.76759 11.4298 9.50947 10.2785 8.98708 9.51347V11.4298H7.18306V5.23112L8.98708 4.88278V8.30286C9.6263 7.54833 9.91113 6.81861 9.97371 6.65827ZM20.7517 11.4298V5.18795L22.5 4.88278V11.4298H20.7517ZM14.7249 6.57096C13.1099 6.62178 12.2893 7.3294 12.2893 8.7359V11.4298H14.0519V9.23261C14.0519 8.39084 14.165 8.02992 15.1888 7.9955V6.59582C15.0166 6.56003 14.7249 6.57096 14.7249 6.57096ZM15.711 11.4298V6.64118H17.459V11.4298H15.711ZM18.1997 5.18795L19.9469 4.88278V11.4298H18.1997V5.18795Z" fill="#862165"/></svg>