<svg width="24" height="16" viewBox="0 0 24 16" fill="none" xmlns="http://www.w3.org/2000/svg"><path d="M4.32323 7.78071C4.32054 7.69658 4.28129 7.65315 4.20509 7.6503H3.79809C3.70176 7.65627 3.65199 7.70967 3.64968 7.81013V8.5499C3.65199 8.65361 3.70702 8.70649 3.814 8.70947H4.18701C4.22575 8.70947 4.25794 8.69496 4.2836 8.66527C4.3104 8.64298 4.32323 8.61433 4.32323 8.57881V7.78071ZM3.12711 7.67571C3.1298 7.4906 3.17059 7.34996 3.24973 7.25378C3.29116 7.21346 3.34299 7.17976 3.40609 7.15189C3.47164 7.12221 3.53514 7.10782 3.59671 7.10782H4.34376C4.67328 7.11067 4.84081 7.29279 4.84606 7.65458V8.76806C4.84363 8.89652 4.79386 9.008 4.69766 9.1012C4.60235 9.1992 4.48857 9.24911 4.35607 9.25209H3.64968V10.0549H3.12711V7.67571Z" fill="#008AC9"/><path d="M5.78937 8.60202C5.78937 8.633 5.80348 8.65749 5.83105 8.6759C5.85568 8.69794 5.88672 8.70947 5.92598 8.70947H6.32734C6.41802 8.70947 6.4651 8.67396 6.46779 8.60202V8.45061C6.46779 8.36791 6.41995 8.32617 6.32349 8.32617H5.92598C5.87364 8.32617 5.83747 8.33499 5.81733 8.35158C5.79873 8.37115 5.78937 8.40991 5.78937 8.46733V8.60202ZM6.46779 7.76761C6.47049 7.68647 6.42367 7.64771 6.32721 7.6503H5.27474V7.10782H6.45971C6.80489 7.11352 6.98011 7.28204 6.98601 7.61479V8.74966C6.98306 8.89315 6.93957 9.0115 6.85517 9.10561C6.76692 9.20309 6.65314 9.25209 6.51371 9.25209H5.79745C5.44881 9.24911 5.27205 9.08824 5.26666 8.76845V8.33058C5.26936 7.9964 5.43829 7.82659 5.77269 7.82076H6.46779V7.76761Z" fill="#008AC9"/><path d="M8.45371 9.51225C8.49514 9.50965 8.53105 9.49462 8.56017 9.46765C8.58814 9.44251 8.60224 9.4136 8.60224 9.38081V9.25209H7.93318C7.84596 9.25209 7.77618 9.24081 7.7241 9.21838C7.66907 9.19803 7.6143 9.16005 7.55915 9.10613C7.50694 9.04896 7.46936 8.98921 7.44652 8.92673C7.42279 8.86956 7.41074 8.79684 7.41074 8.70947V7.10782H7.93318V8.53759C7.93318 8.65218 7.97949 8.70947 8.07326 8.70947H8.44216C8.48603 8.70947 8.52413 8.69496 8.55607 8.66527C8.58685 8.64012 8.60224 8.61031 8.60224 8.57531V7.10782H9.12046V9.47064C9.11751 9.6455 9.07313 9.7855 8.98757 9.89166C8.90073 9.99782 8.78195 10.0521 8.63046 10.0549H7.41074V9.51225H8.45371Z" fill="#008AC9"/><path d="M9.53079 8.70947H10.4619C10.5471 8.70649 10.5913 8.67201 10.594 8.6059V8.55716C10.594 8.54304 10.5898 8.52735 10.5816 8.5105C10.5608 8.46954 10.5353 8.44919 10.5049 8.44919H10.0432C9.90624 8.44646 9.78939 8.39876 9.69113 8.30673C9.59172 8.22169 9.5408 8.11709 9.53785 7.99433V7.58977C9.54323 7.27413 9.71294 7.11352 10.0472 7.10782H11.1271V7.6503H10.2122C10.1048 7.6503 10.0507 7.68362 10.0507 7.74998V7.80248C10.0507 7.87131 10.106 7.90579 10.2161 7.90579H10.6764C10.799 7.90865 10.9035 7.95609 10.9906 8.04864C11.0786 8.14184 11.1243 8.25267 11.1271 8.38139V8.77714C11.1243 8.88836 11.0734 8.99932 10.9755 9.11002C10.9278 9.16433 10.8789 9.20166 10.83 9.22279C10.7795 9.24224 10.7109 9.25209 10.6233 9.25209H9.53079V8.70947Z" fill="#008AC9"/><path d="M12.0213 8.60202C12.0213 8.633 12.0354 8.65749 12.0636 8.6759C12.088 8.69794 12.1192 8.70947 12.1579 8.70947H12.56C12.6507 8.70947 12.6975 8.67396 12.7002 8.60202V8.45061C12.7002 8.36791 12.6518 8.32617 12.5557 8.32617H12.1579C12.1057 8.32617 12.0697 8.33499 12.0497 8.35158C12.0311 8.37115 12.0213 8.40991 12.0213 8.46733V8.60202ZM12.7002 7.76761C12.7026 7.68647 12.6557 7.64771 12.5591 7.6503H11.5069V7.10782H12.6923C13.0371 7.11352 13.2124 7.28204 13.2178 7.61479V8.74966C13.215 8.89315 13.1711 9.0115 13.0872 9.10561C12.9996 9.20309 12.8857 9.25209 12.7462 9.25209H12.0293C11.6809 9.24911 11.504 9.08824 11.4991 8.76845V8.33058C11.5014 7.9964 11.6702 7.82659 12.0049 7.82076H12.7002V7.76761Z" fill="#008AC9"/><path d="M13.6426 6.80019C13.6458 6.65371 13.6992 6.53614 13.8039 6.448C13.9055 6.35842 14.0389 6.31241 14.2038 6.30981H14.5357V6.83389H14.3347C14.2242 6.83648 14.1679 6.88989 14.1655 6.99307V7.10792H14.5357V7.65092H14.1655V9.25232H13.6426V6.80019Z" fill="#008AC9"/><path d="M16.0218 7.7575V7.74493C16.0218 7.71706 16.0107 7.69334 15.9882 7.67571C15.9638 7.6586 15.9341 7.6503 15.8983 7.6503H15.5345C15.4878 7.6503 15.4502 7.66352 15.4211 7.69062C15.385 7.71563 15.3666 7.74856 15.3666 7.78913V8.0069L16.0218 7.7575ZM15.3749 8.52437V8.5582C15.3749 8.60163 15.3861 8.63611 15.4088 8.66112C15.4252 8.69314 15.4473 8.70947 15.4767 8.70947H16.5502V9.25209H15.4088C15.3047 9.25209 15.2235 9.24224 15.1661 9.22253C15.1034 9.20166 15.0471 9.16757 14.998 9.12013C14.9405 9.06271 14.9014 9.00424 14.8817 8.9441C14.8602 8.88136 14.8496 8.79814 14.8496 8.69444L14.8451 7.60856C14.8508 7.28048 15.0204 7.11352 15.3537 7.10782H16.0581C16.3835 7.11352 16.5484 7.28631 16.5536 7.6271V8.05603L15.3749 8.52437Z" fill="#008AC9"/><path d="M17.6598 9.25211C17.5807 9.25211 17.5085 9.24472 17.4429 9.23124C17.3743 9.21996 17.3059 9.18782 17.236 9.1335C17.1643 9.07037 17.1147 8.9996 17.0875 8.92143C17.0588 8.84457 17.0449 8.75746 17.0449 8.65946V7.64695C17.0419 7.56438 17.0502 7.49192 17.0693 7.42905C17.0868 7.36631 17.1238 7.30487 17.1796 7.24473C17.2432 7.1816 17.3081 7.1396 17.3766 7.11899C17.4425 7.10227 17.5168 7.09384 17.6001 7.09384H18.401V7.22075H17.6187C17.4805 7.22075 17.372 7.24939 17.2926 7.30682C17.2114 7.36943 17.17 7.4774 17.17 7.62958V8.64274C17.17 8.71403 17.1807 8.78338 17.2022 8.85027C17.2241 8.91599 17.2606 8.97367 17.3131 9.0241C17.3701 9.06778 17.4268 9.095 17.482 9.10615C17.5396 9.11898 17.6015 9.12508 17.667 9.12508H18.4135V9.25211H17.6598Z" fill="#008AC9"/><path d="M20.4609 7.93848H19.4108C19.2851 7.94133 19.1866 7.98061 19.1157 8.05631C19.0423 8.13318 19.006 8.23857 19.006 8.37247V8.69563C19.006 8.75824 19.0124 8.81553 19.0258 8.86712C19.039 8.92143 19.072 8.96991 19.124 9.01152C19.2147 9.08749 19.3152 9.12508 19.425 9.12508H20.0612C20.3271 9.12223 20.4609 8.98067 20.4609 8.69965V7.93848ZM20.5857 8.66802C20.5857 8.74955 20.5795 8.8211 20.5691 8.8841C20.5522 8.95254 20.5174 9.01852 20.4647 9.08126C20.355 9.19806 20.2191 9.25496 20.0568 9.25211H19.4325C19.2703 9.25211 19.1388 9.20311 19.0369 9.10563C18.9329 9.00932 18.8802 8.87542 18.8802 8.70366V8.37727C18.8854 8.009 19.067 7.82039 19.4246 7.81184H20.4647V7.66899C20.4647 7.55129 20.431 7.44824 20.3639 7.35957C20.3213 7.30202 20.2709 7.26352 20.2137 7.24369C20.1558 7.22839 20.0909 7.22075 20.0186 7.22075H18.8839V7.09384H19.9596C20.058 7.09384 20.1469 7.10084 20.2274 7.11458C20.2688 7.12288 20.3064 7.13921 20.3412 7.1628C20.378 7.18523 20.4124 7.21802 20.4442 7.26106C20.5407 7.3868 20.5877 7.53185 20.5857 7.69518V8.66802Z" fill="#008AC9"/><path d="M21.7599 7.22075C21.4687 7.22619 21.3252 7.3868 21.3305 7.70282V9.25211H21.2055V7.70334C21.1996 7.29684 21.3911 7.09384 21.78 7.09384H21.9191V7.22075H21.7599Z" fill="#008AC9"/><path d="M23.8751 7.22141H22.8853C22.814 7.22141 22.7501 7.22944 22.6925 7.24474C22.6322 7.25848 22.574 7.29542 22.5195 7.35557C22.4673 7.4104 22.4344 7.46471 22.4207 7.51903C22.4024 7.57386 22.394 7.63958 22.397 7.71619V8.70394C22.397 8.86817 22.4441 8.97991 22.5395 9.03993C22.5866 9.0678 22.6383 9.08866 22.6962 9.10266C22.754 9.11822 22.8184 9.12587 22.8893 9.12587H23.3221C23.4837 9.12587 23.6159 9.08828 23.7175 9.01244C23.8196 8.94128 23.8716 8.81852 23.8751 8.64353V7.22141ZM24 8.65221C23.989 9.06105 23.7749 9.26146 23.3579 9.25303H22.8939C22.7959 9.25303 22.7083 9.24435 22.6308 9.22788C22.551 9.20701 22.4747 9.15789 22.4012 9.08128C22.3459 9.01244 22.3104 8.94284 22.2962 8.87154C22.2771 8.80038 22.2687 8.72118 22.2717 8.63472V7.71295C22.2771 7.29776 22.484 7.09139 22.8929 7.0945H23.8751V6.39465H24V8.65221Z" fill="#008AC9"/><path d="M0.224335 7.02628C0.265382 7.008 0.306428 6.99374 0.347475 6.9848C0.422898 6.62081 0.741908 6.34782 1.12428 6.34782C1.50692 6.34782 1.82605 6.6212 1.90135 6.98506C2.01872 7.00761 2.11582 7.05557 2.1915 7.127C2.19458 7.05713 2.19175 6.98985 2.18354 6.92647C2.13519 6.37659 1.67893 5.94507 1.12262 5.94507C0.549886 5.94507 0.0836215 6.40381 0.0593784 6.97728C0.0560434 7.0268 0.0550173 7.07839 0.0568131 7.13231C0.104915 7.09135 0.159815 7.05454 0.224335 7.02628Z" fill="#E3001B"/><path d="M1.74602 7.10782H0.469728C0.408286 7.10782 0.344664 7.12221 0.279118 7.15189C0.21588 7.17976 0.164059 7.21346 0.122499 7.25378C0.0433556 7.34996 0.00282191 7.4906 0 7.67571V8.68394C0.00282191 8.86943 0.0433556 9.00995 0.122499 9.10561C0.164059 9.14657 0.21588 9.18028 0.279118 9.2084C0.344664 9.23744 0.408286 9.25209 0.469728 9.25209H1.74602C2.07568 9.24911 2.24333 9.06633 2.24859 8.70507V7.65458C2.24333 7.29279 2.07568 7.11067 1.74602 7.10782Z" fill="#E3001B"/></svg>